<?xml version="1.0" encoding="utf-8"?>
<!-- Generator: Adobe Illustrator 14.0.0, SVG Export Plug-In  -->
<!DOCTYPE svg PUBLIC "-//W3C//DTD SVG 1.1//EN" "http://www.w3.org/Graphics/SVG/1.1/DTD/svg11.dtd" [
	<!ENTITY ns_flows "http://ns.adobe.com/Flows/1.0/">
]>
<svg version="1.1"
	 xmlns="http://www.w3.org/2000/svg" xmlns:xlink="http://www.w3.org/1999/xlink" xmlns:a="http://ns.adobe.com/AdobeSVGViewerExtensions/3.0/"
	 x="0px" y="0px" width="800px" height="181px" viewBox="-14.055 -9.303 800 181" enable-background="new -14.055 -9.303 800 181"
	 xml:space="preserve">
<defs>
</defs>
<path fill="#0056BB" d="M303.455,25.246V25.09c-6.546-1.939-13.195-2.909-19.949-2.909c-5.714,0-10.685,0.883-14.91,2.649
	c-5.299,2.217-7.948,5.421-7.948,9.611c0,6.442,4.744,10.338,14.234,11.689c8.104,1.143,16.33,2.477,24.676,4
	c14.442,2.633,21.664,9.248,21.664,19.845c0,6.65-3.325,12.123-9.975,16.417c-7.308,4.71-16.902,7.064-28.781,7.064
	c-11.395,0-22.252-1.696-32.573-5.091c-0.451-0.138-1.317-0.433-2.598-0.884l-0.624-0.207v-0.104
	c-2.597-1.455-3.896-3.429-3.896-5.923c0-2.32,1.056-4.173,3.169-5.559c1.835-1.212,3.965-1.818,6.39-1.818
	c2.459,0,4.589,0.589,6.39,1.766c2.112,1.386,3.169,3.239,3.169,5.559l2.649,0.728c6.476,1.766,12.502,2.649,18.079,2.649
	c6.545,0,12.052-0.883,16.52-2.649c5.818-2.286,8.728-5.784,8.728-10.493c0-6.302-4.226-10.078-12.676-11.325
	c-5.681-0.826-13.233-1.98-22.654-3.462c-16.83-2.667-25.245-9.736-25.245-21.206c0-7.172,3.948-12.802,11.845-16.892
	c6.788-3.499,14.927-5.25,24.417-5.25c10.771,0,21.542,1.628,32.313,4.883c4.433,1.351,6.65,3.707,6.65,7.065
	c0,2.286-1.039,4.122-3.117,5.507c-1.836,1.213-3.966,1.818-6.39,1.818c-2.46,0-4.59-0.588-6.39-1.767
	C304.511,29.419,303.455,27.566,303.455,25.246z"/>
<path fill="#0056BB" d="M382.835,38.032c0-2.355,1.06-4.236,3.178-5.643c1.805-1.229,3.941-1.845,6.407-1.845
	c2.43,0,4.566,0.606,6.407,1.818c2.083,1.421,3.126,3.273,3.126,5.559c0,2.286-1.039,4.139-3.117,5.559
	c-1.836,1.212-3.967,1.818-6.391,1.818c-0.658,0-1.265,0-1.817,0l-20.071,15.507l22.396,19.521c2.358,0.035,4.438,0.66,6.242,1.875
	c2.08,1.39,3.121,3.211,3.121,5.469c0,2.326-1.057,4.185-3.169,5.572c-1.836,1.216-3.966,1.824-6.39,1.824
	c-2.425,0-4.555-0.607-6.39-1.818c-2.113-1.385-3.169-3.238-3.169-5.559c0-0.624,0.104-1.229,0.312-1.818L361.535,66.65
	l-7.948,6.026v9.039c2.112,1.455,3.169,3.273,3.169,5.456c0,2.32-1.042,4.174-3.125,5.559c-1.841,1.211-3.995,1.818-6.46,1.818
	c-2.431,0-4.567-0.607-6.408-1.818c-2.083-1.385-3.125-3.238-3.125-5.559c0-2.424,1.247-4.381,3.74-5.871V21.557
	c-2.286-1.489-3.429-3.377-3.429-5.663s1.06-4.138,3.178-5.559c1.84-1.212,3.976-1.818,6.407-1.818c2.43,0,4.567,0.605,6.408,1.817
	c2.083,1.385,3.125,3.235,3.125,5.554s-1.161,4.205-3.48,5.658v41.473l29.345-23.985C382.867,38.717,382.835,38.383,382.835,38.032z
	"/>
<path fill="#0056BB" d="M475.982,82.08c2.008,1.455,3.013,3.238,3.013,5.352c0,2.32-1.057,4.174-3.169,5.559
	c-1.836,1.211-3.966,1.818-6.39,1.818c-2.286,0-4.312-0.555-6.078-1.663c-2.044-1.247-3.187-2.943-3.429-5.091l-0.416,0.26
	c-3.706,2.113-7.844,3.637-12.416,4.571c-2.563,0.52-5.662,0.779-9.299,0.779c-6.2,0-11.499-1.489-15.897-4.468
	c-5.021-3.394-7.532-8.052-7.532-13.975c0-8.173,4.536-13.871,13.611-17.092c6.372-2.251,18.32-3.723,35.846-4.416v-1.507
	c0-4.364-2.009-7.394-6.026-9.091c-2.944-1.247-7.429-1.87-13.455-1.87c-2.806,0-5.871,0.26-9.195,0.779
	c0,2.286-1.057,4.139-3.169,5.559c-1.836,1.213-3.966,1.818-6.39,1.818c-2.425,0-4.555-0.605-6.391-1.818
	c-2.112-1.385-3.169-3.238-3.169-5.559c0-2.839,1.593-4.97,4.779-6.39v-0.364c8.069-1.766,15.949-2.649,23.638-2.649
	c21.022,0,31.534,6.685,31.534,20.053V82.08z M463.826,77.768V61.611c-6.537,0.312-10.773,0.537-12.71,0.675
	c-5.188,0.381-9.304,0.918-12.347,1.61c-7.851,1.766-11.776,5.317-11.776,10.65c0,6.685,5.084,10.026,15.252,10.026
	C449.3,84.573,456.493,82.305,463.826,77.768z"/>
<path fill="#0056BB" d="M544.243,86.859c0-2.354,1.212-4.277,3.637-5.766V59.014c0-6.268-0.918-10.598-2.754-12.988
	c-2.182-2.874-6.372-4.312-12.571-4.312c-6.339,0-13.317,2.338-20.937,7.014v32.937c2.147,1.455,3.221,3.273,3.221,5.455
	c0,2.32-1.042,4.174-3.125,5.559c-1.841,1.213-3.978,1.818-6.407,1.818c-2.467,0-4.603-0.605-6.407-1.816
	c-2.119-1.384-3.178-3.235-3.178-5.555c0-2.422,1.229-4.36,3.688-5.813V44.769c-2.46-1.488-3.688-3.425-3.688-5.813
	c0-2.318,1.056-4.17,3.169-5.555c1.8-1.211,3.93-1.817,6.39-1.817c2.354,0,4.433,0.567,6.234,1.702
	c2.078,1.307,3.15,3.06,3.221,5.26c7.1-4.086,14.183-6.13,21.248-6.13c16.069,0,24.104,7.325,24.104,21.975V81.3
	c2.183,1.455,3.273,3.308,3.273,5.559c0,2.32-1.043,4.174-3.126,5.559c-1.841,1.213-3.977,1.818-6.407,1.818
	c-2.466,0-4.602-0.605-6.407-1.818C545.303,91.033,544.243,89.179,544.243,86.859z"/>
<path fill="#0056BB" d="M626.271,15.895c0-2.32,1.056-4.173,3.169-5.559c1.835-1.212,3.965-1.818,6.39-1.818
	c2.459,0,4.589,0.606,6.391,1.818c2.111,1.386,3.169,3.239,3.169,5.559c0,2.078-0.971,3.844-2.91,5.299V81.56
	c1.939,1.455,2.91,3.238,2.91,5.352c0,2.285-1.058,4.139-3.169,5.559c-1.837,1.211-3.967,1.818-6.391,1.818
	c-5.229,0-8.347-1.975-9.351-5.923c-6.27,3.532-12.798,5.299-19.586,5.299c-9.767,0-17.126-3.221-22.079-9.663
	c-4.122-5.333-6.182-12.174-6.182-20.521c0-8.416,2.684-15.533,8.052-21.352c5.992-6.476,14.044-9.715,24.157-9.715
	c6.615,0,13.092,1.316,19.43,3.948V21.869C627.604,20.414,626.271,18.423,626.271,15.895z M630.271,77.768v-33.3
	c-5.812-2.078-11.587-3.117-17.329-3.117c-6.986,0-12.347,1.914-16.082,5.74c-3.736,3.828-5.604,9.221-5.604,16.183
	c0,14.062,6.19,21.092,18.574,21.092C616.471,84.366,623.284,82.167,630.271,77.768z"/>
<path fill="#0056BB" d="M722.847,82.08c2.008,1.455,3.013,3.238,3.013,5.352c0,2.32-1.057,4.174-3.169,5.559
	c-1.836,1.211-3.966,1.818-6.39,1.818c-2.286,0-4.312-0.555-6.078-1.663c-2.044-1.247-3.187-2.943-3.429-5.091l-0.416,0.26
	c-3.706,2.113-7.844,3.637-12.416,4.571c-2.563,0.52-5.662,0.779-9.299,0.779c-6.2,0-11.499-1.489-15.897-4.468
	c-5.021-3.394-7.532-8.052-7.532-13.975c0-8.173,4.536-13.871,13.611-17.092c6.372-2.251,18.32-3.723,35.846-4.416v-1.507
	c0-4.364-2.009-7.394-6.026-9.091c-2.944-1.247-7.429-1.87-13.455-1.87c-2.806,0-5.871,0.26-9.195,0.779
	c0,2.286-1.057,4.139-3.169,5.559c-1.836,1.213-3.966,1.818-6.39,1.818c-2.425,0-4.555-0.605-6.391-1.818
	c-2.112-1.385-3.169-3.238-3.169-5.559c0-2.839,1.593-4.97,4.779-6.39v-0.364c8.069-1.766,15.949-2.649,23.638-2.649
	c21.022,0,31.534,6.685,31.534,20.053V82.08z M710.69,77.768V61.611c-6.537,0.312-10.773,0.537-12.71,0.675
	c-5.188,0.381-9.304,0.918-12.347,1.61c-7.851,1.766-11.776,5.317-11.776,10.65c0,6.685,5.084,10.026,15.252,10.026
	C696.164,84.573,703.357,82.305,710.69,77.768z"/>
<path fill="#0056BB" d="M743.054,87.431c0-2.252,1.144-4.122,3.429-5.611V21.713c-2.493-1.455-3.74-3.394-3.74-5.818
	c0-2.32,1.057-4.173,3.169-5.559c1.836-1.212,3.966-1.818,6.391-1.818c2.458,0,4.588,0.606,6.39,1.818
	c2.112,1.386,3.169,3.239,3.169,5.559c0,2.182-1.057,4.018-3.169,5.507v60.314c2.319,1.49,3.48,3.395,3.48,5.715
	s-1.042,4.174-3.125,5.559c-1.841,1.211-3.995,1.818-6.46,1.818c-2.431,0-4.566-0.607-6.407-1.818
	C744.096,91.605,743.054,89.751,743.054,87.431z"/>
<path fill="#0056BB" d="M253.658,129.093c0-0.987,0.442-1.775,1.327-2.365c0.781-0.516,1.688-0.773,2.719-0.773
	c1.149,0,2.107,0.309,2.874,0.928l0.177,0.133c0.943-0.191,1.791-0.472,2.542-0.84c1.946-0.958,2.918-2.402,2.918-4.334
	c0-3.051-2.664-4.576-7.991-4.576c-1.927,0-3.833,0.251-5.717,0.752v0.354c0,0.973-0.451,1.754-1.352,2.344
	c-0.784,0.53-1.692,0.796-2.727,0.796c-1.02,0-1.921-0.258-2.705-0.774c-0.902-0.604-1.353-1.393-1.353-2.365
	c0-0.869,0.391-1.606,1.172-2.211c0.457-0.339,0.951-0.582,1.481-0.729c3.434-1.326,7.208-1.989,11.32-1.989
	c3.699,0,6.743,0.567,9.131,1.702c2.903,1.386,4.355,3.464,4.355,6.234c0,1.931-0.899,3.604-2.697,5.019
	c-1.533,1.224-3.338,2.005-5.417,2.344v0.31c0.898,0.118,1.908,0.361,3.029,0.729c2.343,0.767,4.038,2.033,5.085,3.803
	c0.575,0.958,0.862,2.196,0.862,3.714c0,3.597-1.673,6.323-5.019,8.181c-2.712,1.503-6.013,2.255-9.904,2.255
	c-4.319,0-8.379-0.692-12.182-2.078v-0.022c-0.28-0.118-0.567-0.295-0.862-0.53c-0.796-0.634-1.194-1.371-1.194-2.211
	c0-0.987,0.449-1.776,1.349-2.366c0.781-0.516,1.688-0.773,2.719-0.773c1.017,0,1.923,0.266,2.719,0.796
	c0.899,0.59,1.349,1.371,1.349,2.344c0,0.104,0,0.206,0,0.31c1.955,0.472,3.961,0.707,6.018,0.707c2.587,0,4.703-0.493,6.349-1.481
	c2.013-1.208,3.021-3.028,3.021-5.46c0-3.361-2.108-5.284-6.323-5.771l-0.155,0.11c-0.767,0.619-1.725,0.929-2.874,0.929
	c-1.017,0-1.916-0.258-2.697-0.774C254.107,130.855,253.658,130.066,253.658,129.093z"/>
<path fill="#0056BB" d="M281.338,116.049c0-0.987,0.449-1.776,1.349-2.366c0.766-0.516,1.672-0.773,2.719-0.773
	c1.341,0,2.417,0.406,3.228,1.217h4.09c6.898,0,12.093,0.869,15.586,2.608c5.925,2.948,8.888,7.575,8.888,13.884
	c0,2.978-0.818,5.704-2.454,8.181c-1.592,2.388-3.758,4.26-6.5,5.615c-3.523,1.754-8.659,2.631-15.41,2.631h-4.886
	c-0.811,0.648-1.798,0.973-2.962,0.973c-1.032,0-1.938-0.258-2.72-0.773c-0.899-0.59-1.349-1.371-1.349-2.344
	c0-1.017,0.509-1.835,1.526-2.454v-24.253C281.706,117.589,281.338,116.875,281.338,116.049z M288.678,117.863
	c-0.221,0.236-0.479,0.442-0.774,0.619v24.251c0.221,0.178,0.405,0.369,0.553,0.576h4.599c5.35,0,9.448-0.73,12.292-2.192
	c4.097-2.097,6.146-5.618,6.146-10.564c0-5.108-2.241-8.682-6.721-10.719c-2.889-1.314-6.794-1.971-11.717-1.971H288.678z"/>
<path fill="#0056BB" d="M374.768,145.055c0-0.161,0-0.316,0-0.464l-11.121-10.635h-7.716v8.91c0.884,0.619,1.327,1.386,1.327,2.3
	c0,0.987-0.443,1.776-1.33,2.365c-0.783,0.516-1.7,0.773-2.749,0.773c-1.035,0-1.943-0.258-2.727-0.773
	c-0.887-0.589-1.33-1.378-1.33-2.365c0-0.929,0.449-1.703,1.349-2.321v-24.43c-1.003-0.635-1.503-1.445-1.503-2.433
	s0.449-1.776,1.349-2.366c0.781-0.516,1.688-0.773,2.719-0.773c1.385,0,2.483,0.428,3.294,1.283h5.66
	c4.776,0,8.342,0.589,10.701,1.769c3.169,1.593,4.753,3.988,4.753,7.187c0,4.645-2.802,7.836-8.405,9.576l9.865,9.28
	c1.037,0.03,1.934,0.294,2.689,0.794c0.874,0.587,1.312,1.365,1.312,2.335c0,0.984-0.444,1.77-1.33,2.357
	c-0.784,0.514-1.693,0.771-2.727,0.771c-1.049,0-1.958-0.258-2.727-0.773C375.219,146.832,374.768,146.043,374.768,145.055z
	 M356.263,117.863c-0.103,0.104-0.214,0.199-0.332,0.287v12.159h5.527c6.839,0,10.258-2.311,10.258-6.933
	c0-3.676-3.11-5.514-9.33-5.514H356.263z"/>
<path fill="#0056BB" d="M405.427,143.022c0-0.987,0.449-1.776,1.349-2.366c0.78-0.516,1.688-0.773,2.719-0.773
	c1.032,0,1.938,0.258,2.72,0.773c0.898,0.59,1.349,1.379,1.349,2.366c0,0.781-0.347,1.467-1.039,2.056v0.465
	c-4.098,1.385-7.797,2.078-11.099,2.078c-4.687,0-8.453-0.937-11.298-2.809c-3.346-2.195-5.018-5.52-5.018-9.971
	c0-4.273,1.466-7.583,4.399-9.926c2.684-2.168,6.221-3.25,10.612-3.25c3.936,0,7.031,0.869,9.286,2.607
	c2.49,1.932,3.736,4.799,3.736,8.602v2.254h-22.75c0,3.037,1.113,5.321,3.338,6.854c1.916,1.341,4.459,2.012,7.628,2.012
	c1.371,0,2.749-0.14,4.135-0.42C405.448,143.383,405.427,143.199,405.427,143.022z M408.079,131.945
	c-0.029-4.568-2.771-6.854-8.224-6.854c-2.447,0-4.51,0.531-6.191,1.592c-1.916,1.225-3.006,2.978-3.271,5.262H408.079z"/>
<path fill="#0056BB" d="M435.997,143c0-0.973,0.449-1.761,1.349-2.365c0.78-0.516,1.68-0.774,2.697-0.774
	c1.046,0,1.96,0.259,2.741,0.774c0.898,0.589,1.349,1.378,1.349,2.365c0,0.899-0.428,1.658-1.282,2.277v0.221
	c-3.655,1.4-6.957,2.101-9.905,2.101c-4.51,0-8.084-0.995-10.722-2.984c-2.948-2.226-4.422-5.52-4.422-9.883
	c0-3.876,1.297-6.979,3.891-9.308c2.712-2.432,6.463-3.648,11.253-3.648c3.214,0,6.515,0.686,9.905,2.057v0.199
	c0.854,0.619,1.282,1.385,1.282,2.299c0,0.988-0.45,1.776-1.349,2.365c-0.781,0.517-1.695,0.774-2.741,0.774
	c-1.018,0-1.917-0.258-2.697-0.774c-0.899-0.604-1.349-1.393-1.349-2.365c0-0.191,0.021-0.383,0.066-0.574
	c-1.138-0.251-2.252-0.377-3.345-0.377c-3.041,0-5.393,0.808-7.054,2.422c-1.661,1.613-2.491,3.924-2.491,6.931
	c0,2.978,0.838,5.266,2.514,6.864c1.676,1.6,4.02,2.399,7.031,2.399c0.768,0,1.838-0.11,3.211-0.332l0.134-0.021
	C436.019,143.419,435.997,143.207,435.997,143z"/>
<path fill="#0056BB" d="M476.813,134.708c0,4.172-1.341,7.414-4.023,9.729c-2.55,2.196-5.955,3.294-10.214,3.294
	c-4.289,0-7.702-1.084-10.236-3.25c-2.683-2.313-4.024-5.571-4.024-9.772c0-4.186,1.349-7.436,4.046-9.75
	c2.55-2.195,5.955-3.293,10.215-3.293c4.289,0,7.7,1.098,10.235,3.293C475.479,127.273,476.813,130.523,476.813,134.708z
	 M471.441,134.708c0-6.308-2.959-9.462-8.877-9.462s-8.876,3.154-8.876,9.462c0,6.294,2.958,9.44,8.876,9.44
	S471.441,141.002,471.441,134.708z"/>
<path fill="#0056BB" d="M501.939,144.834c0-1.002,0.516-1.82,1.548-2.454v-9.396c0-2.667-0.391-4.51-1.172-5.526
	c-0.929-1.224-2.712-1.835-5.351-1.835c-2.697,0-5.667,0.994-8.909,2.984v14.017c0.913,0.619,1.37,1.393,1.37,2.321
	c0,0.988-0.443,1.776-1.329,2.366c-0.784,0.516-1.693,0.773-2.728,0.773c-1.049,0-1.958-0.258-2.727-0.773
	c-0.901-0.589-1.353-1.377-1.353-2.363c0-1.031,0.523-1.855,1.57-2.475v-15.551c-1.047-0.634-1.57-1.458-1.57-2.474
	c0-0.987,0.449-1.775,1.349-2.364c0.767-0.516,1.673-0.773,2.72-0.773c1.002,0,1.887,0.241,2.653,0.724
	c0.884,0.557,1.341,1.303,1.37,2.238c3.021-1.738,6.036-2.607,9.043-2.607c6.838,0,10.258,3.117,10.258,9.352v11.452
	c0.929,0.619,1.393,1.407,1.393,2.365c0,0.987-0.443,1.776-1.33,2.365c-0.783,0.517-1.692,0.774-2.727,0.774
	c-1.05,0-1.958-0.258-2.727-0.774C502.391,146.611,501.939,145.822,501.939,144.834z"/>
<path fill="#0056BB" d="M514.408,142.779c0-0.987,0.449-1.776,1.349-2.366c0.781-0.516,1.688-0.773,2.72-0.773
	c1.046,0,1.953,0.258,2.719,0.773c0.899,0.59,1.349,1.379,1.349,2.366c0,0.177-0.021,0.346-0.065,0.508
	c1.975,0.561,3.868,0.841,5.682,0.841c4.863,0,7.296-1.225,7.296-3.675c0-1.121-0.516-1.962-1.548-2.522
	c-0.604-0.325-1.782-0.649-3.536-0.975l-0.376-0.065c-1.282-0.206-3.206-0.529-5.771-0.971c-4.968-0.928-7.451-3.139-7.451-6.631
	c0-2.488,1.349-4.419,4.046-5.789c2.299-1.164,5.099-1.746,8.4-1.746c3.14,0,6.125,0.457,8.954,1.371
	c0.973,0.059,1.813,0.346,2.521,0.861c0.811,0.59,1.216,1.342,1.216,2.256c0,0.987-0.443,1.775-1.33,2.365
	c-0.783,0.516-1.699,0.773-2.749,0.773c-1.034,0-1.943-0.258-2.727-0.773c-0.887-0.59-1.33-1.378-1.33-2.365
	c0-0.104,0-0.214,0-0.332c-1.688-0.428-3.34-0.641-4.956-0.641c-4.493,0-6.739,1.156-6.739,3.471c0,1.842,1.644,3.029,4.931,3.559
	c1.046,0.163,3.109,0.502,6.19,1.018c5.04,0.855,7.561,3.059,7.561,6.61c0,2.595-1.43,4.584-4.289,5.97
	c-2.402,1.164-5.32,1.746-8.755,1.746c-2.27,0-4.363-0.221-6.278-0.663c-2.241-0.516-3.752-0.943-4.532-1.282
	C515.241,144.975,514.408,144.002,514.408,142.779z"/>
<path fill="#0056BB" d="M560.138,143.862c0.029-0.973,0.486-1.747,1.37-2.321c0.767-0.501,1.658-0.752,2.676-0.752
	c1.031,0,1.938,0.258,2.719,0.774c0.899,0.589,1.349,1.378,1.349,2.365c0,1.209-0.685,2.115-2.056,2.719v0.178
	c-2.226,0.471-4.318,0.707-6.279,0.707c-6.426,0-9.639-2.852-9.639-8.556v-13.133h-4.621v-3.493h4.621v-2.874
	c-1.032-0.633-1.548-1.459-1.548-2.477c0-0.973,0.449-1.754,1.349-2.344c0.781-0.516,1.688-0.773,2.72-0.773
	c1.031,0,1.938,0.258,2.719,0.773c0.899,0.59,1.349,1.371,1.349,2.344c0,0.943-0.464,1.732-1.393,2.366v2.984h4.09
	c0.796-1.017,1.96-1.525,3.493-1.525c1.031,0,1.938,0.259,2.72,0.774c0.884,0.589,1.326,1.378,1.326,2.365s-0.442,1.775-1.326,2.365
	c-0.781,0.516-1.688,0.773-2.72,0.773c-1.356,0-2.446-0.42-3.271-1.26h-4.312v11.253c0,2.535,0.295,4.23,0.885,5.085
	C557.05,143.184,558.31,143.744,560.138,143.862z"/>
<path fill="#0056BB" d="M592.028,122.417c0.987,0.044,1.843,0.325,2.564,0.843c0.825,0.578,1.238,1.34,1.238,2.285
	c0,0.992-0.442,1.783-1.326,2.375c-0.782,0.518-1.688,0.775-2.72,0.775c-2.02,0-3.309-0.736-3.869-2.211
	c-2.608,0.148-5.357,1.158-8.246,3.029v13.221c0.913,0.619,1.37,1.394,1.37,2.321c0,0.988-0.443,1.776-1.329,2.366
	c-0.784,0.516-1.693,0.773-2.728,0.773c-1.049,0-1.958-0.258-2.727-0.772c-0.901-0.59-1.353-1.377-1.353-2.364
	c0-1.016,0.523-1.841,1.57-2.474V127.01c-1.165-0.633-1.747-1.487-1.747-2.562c0-0.987,0.456-1.775,1.367-2.364
	c0.779-0.516,1.683-0.773,2.712-0.773c1.028,0,1.933,0.257,2.712,0.77c0.896,0.601,1.345,1.386,1.345,2.353
	c0,0.323-0.059,0.631-0.177,0.924c3.316-2.004,6.404-3.007,9.264-3.007C591.174,122.35,591.866,122.373,592.028,122.417z"/>
<path fill="#0056BB" d="M626.239,142.845c0.885,0.634,1.327,1.407,1.327,2.321c0,0.987-0.45,1.776-1.349,2.365
	c-0.781,0.516-1.688,0.773-2.72,0.773c-1.017,0-1.909-0.25-2.675-0.751c-0.885-0.575-1.349-1.342-1.394-2.3
	c-2.962,1.651-5.873,2.477-8.732,2.477c-6.854,0-10.28-3.117-10.28-9.353V126.75c-1.018-0.633-1.525-1.443-1.525-2.432
	c0-0.987,0.455-1.775,1.367-2.365c0.778-0.516,1.683-0.773,2.712-0.773c1.028,0,1.933,0.258,2.712,0.773
	c0.896,0.604,1.345,1.393,1.345,2.365c0,0.959-0.472,1.746-1.415,2.365v9.729c0,2.652,0.391,4.487,1.172,5.505
	c0.943,1.238,2.733,1.856,5.372,1.856c2.756,0,5.719-0.994,8.888-2.984v-13.906c-1.18-0.633-1.769-1.488-1.769-2.564
	c0-0.987,0.451-1.775,1.353-2.365c0.769-0.516,1.677-0.773,2.727-0.773c1.034,0,1.943,0.258,2.727,0.773
	c0.887,0.59,1.33,1.378,1.33,2.365c0,0.855-0.391,1.592-1.172,2.211V142.845z"/>
<path fill="#0056BB" d="M649.416,143c0-0.973,0.449-1.761,1.349-2.365c0.78-0.516,1.68-0.774,2.697-0.774
	c1.046,0,1.96,0.259,2.741,0.774c0.898,0.589,1.349,1.378,1.349,2.365c0,0.899-0.428,1.658-1.282,2.277v0.221
	c-3.655,1.4-6.957,2.101-9.905,2.101c-4.51,0-8.084-0.995-10.722-2.984c-2.948-2.226-4.422-5.52-4.422-9.883
	c0-3.876,1.297-6.979,3.891-9.308c2.712-2.432,6.463-3.648,11.253-3.648c3.214,0,6.515,0.686,9.905,2.057v0.199
	c0.854,0.619,1.282,1.385,1.282,2.299c0,0.988-0.45,1.776-1.349,2.365c-0.781,0.517-1.695,0.774-2.741,0.774
	c-1.018,0-1.917-0.258-2.697-0.774c-0.899-0.604-1.349-1.393-1.349-2.365c0-0.191,0.021-0.383,0.066-0.574
	c-1.138-0.251-2.252-0.377-3.345-0.377c-3.041,0-5.393,0.808-7.054,2.422c-1.661,1.613-2.491,3.924-2.491,6.931
	c0,2.978,0.838,5.266,2.514,6.864c1.676,1.6,4.02,2.399,7.031,2.399c0.768,0,1.838-0.11,3.211-0.332l0.134-0.021
	C649.438,143.419,649.416,143.207,649.416,143z"/>
<path fill="#0056BB" d="M674.895,143.862c0.029-0.973,0.486-1.747,1.37-2.321c0.767-0.501,1.658-0.752,2.676-0.752
	c1.031,0,1.938,0.258,2.719,0.774c0.899,0.589,1.349,1.378,1.349,2.365c0,1.209-0.685,2.115-2.056,2.719v0.178
	c-2.226,0.471-4.318,0.707-6.279,0.707c-6.426,0-9.639-2.852-9.639-8.556v-13.133h-4.621v-3.493h4.621v-2.874
	c-1.032-0.633-1.548-1.459-1.548-2.477c0-0.973,0.449-1.754,1.349-2.344c0.781-0.516,1.688-0.773,2.72-0.773
	c1.031,0,1.938,0.258,2.719,0.773c0.899,0.59,1.349,1.371,1.349,2.344c0,0.943-0.464,1.732-1.393,2.366v2.984h4.09
	c0.796-1.017,1.96-1.525,3.493-1.525c1.031,0,1.938,0.259,2.72,0.774c0.884,0.589,1.326,1.378,1.326,2.365s-0.442,1.775-1.326,2.365
	c-0.781,0.516-1.688,0.773-2.72,0.773c-1.356,0-2.446-0.42-3.271-1.26h-4.312v11.253c0,2.535,0.295,4.23,0.885,5.085
	C671.807,143.184,673.066,143.744,674.895,143.862z"/>
<path fill="#0056BB" d="M687.749,144.878c0-1.017,0.516-1.842,1.548-2.476v-15.675c-1.032-0.619-1.548-1.438-1.548-2.455
	c0-0.986,0.443-1.775,1.33-2.365c0.783-0.516,1.692-0.773,2.727-0.773c1.049,0,1.966,0.258,2.749,0.773
	c0.887,0.59,1.33,1.379,1.33,2.365c0,0.944-0.464,1.725-1.393,2.344v15.896c0.929,0.634,1.393,1.423,1.393,2.365
	c0,0.988-0.443,1.776-1.33,2.366c-0.783,0.516-1.7,0.773-2.749,0.773c-1.034,0-1.943-0.258-2.727-0.773
	C688.192,146.655,687.749,145.867,687.749,144.878z M687.903,115.917c0-0.987,0.449-1.776,1.349-2.365
	c0.781-0.517,1.688-0.774,2.72-0.774c1.031,0,1.938,0.258,2.719,0.774c0.899,0.589,1.349,1.378,1.349,2.365
	c0,0.884-0.405,1.636-1.216,2.255v0.045h-0.088c-0.781,0.561-1.702,0.84-2.764,0.84c-1.047,0-1.968-0.279-2.764-0.84h-0.243v-0.199
	C688.258,117.427,687.903,116.728,687.903,115.917z"/>
<path fill="#0056BB" d="M729.059,134.708c0,4.172-1.341,7.414-4.023,9.729c-2.55,2.196-5.955,3.294-10.214,3.294
	c-4.289,0-7.702-1.084-10.236-3.25c-2.683-2.313-4.024-5.571-4.024-9.772c0-4.186,1.349-7.436,4.046-9.75
	c2.55-2.195,5.955-3.293,10.215-3.293c4.289,0,7.7,1.098,10.235,3.293C727.725,127.273,729.059,130.523,729.059,134.708z
	 M723.687,134.708c0-6.308-2.959-9.462-8.877-9.462s-8.876,3.154-8.876,9.462c0,6.294,2.958,9.44,8.876,9.44
	S723.687,141.002,723.687,134.708z"/>
<path fill="#0056BB" d="M754.185,144.834c0-1.002,0.516-1.82,1.548-2.454v-9.396c0-2.667-0.391-4.51-1.172-5.526
	c-0.929-1.224-2.712-1.835-5.351-1.835c-2.697,0-5.667,0.994-8.909,2.984v14.017c0.913,0.619,1.37,1.393,1.37,2.321
	c0,0.988-0.443,1.776-1.329,2.366c-0.784,0.516-1.693,0.773-2.728,0.773c-1.049,0-1.958-0.258-2.727-0.773
	c-0.901-0.589-1.353-1.377-1.353-2.363c0-1.031,0.523-1.855,1.57-2.475v-15.551c-1.047-0.634-1.57-1.458-1.57-2.474
	c0-0.987,0.449-1.775,1.349-2.364c0.767-0.516,1.673-0.773,2.72-0.773c1.002,0,1.887,0.241,2.653,0.724
	c0.884,0.557,1.341,1.303,1.37,2.238c3.021-1.738,6.036-2.607,9.043-2.607c6.838,0,10.258,3.117,10.258,9.352v11.452
	c0.929,0.619,1.393,1.407,1.393,2.365c0,0.987-0.443,1.776-1.33,2.365c-0.783,0.517-1.692,0.774-2.727,0.774
	c-1.05,0-1.958-0.258-2.727-0.774C754.636,146.611,754.185,145.822,754.185,144.834z"/>
<circle fill="#0056BB" cx="109.236" cy="76.587" r="24.795"/>
<path fill="#3783DD" d="M0,85.915c3.13-19.942,12.991-37.992,27.487-52.318c-0.061,1.226-0.097,2.463-0.097,3.712
	c0,47.806,45.258,86.55,101.082,86.55c40.745,0,75.862-20.635,91.862-50.365c0.024,0.06,0.048,0.121,0.061,0.182
	c-7.593,48.326-54.671,85.543-111.61,85.543C56.757,159.218,12.955,128.152,0,85.915z"/>
<path fill="#0056BB" d="M220.395,73.303c-3.13,19.942-12.992,37.991-27.487,52.317c0.061-1.225,0.097-2.463,0.097-3.711
	c0-47.806-45.258-86.55-101.082-86.55c-40.746,0-75.863,20.634-91.862,50.365C0.036,85.664,0.012,85.603,0,85.542
	C7.593,37.216,54.671,0,111.61,0C163.637,0,207.439,31.065,220.395,73.303z"/>
</svg>
